<?xml version="1.0" encoding="utf-8"?>
<!-- Generator: Adobe Illustrator 24.3.0, SVG Export Plug-In . SVG Version: 6.00 Build 0)  -->
<svg version="1.1" id="Layer_1" xmlns="http://www.w3.org/2000/svg" xmlns:xlink="http://www.w3.org/1999/xlink" x="0px" y="0px"
	 viewBox="0 0 1370 439" style="enable-background:new 0 0 1370 439;" xml:space="preserve">
<style type="text/css">
	.st0{fill:#352208;}
	.st1{fill:#B47929;}
	.st2{fill:#FFFFFF;}
	.st3{fill:#00243F;}
	.st4{fill:#D4A276;}
</style>
<g>
	<g>
		<path class="st0" d="M653.7,54.5h19V199h-19.8V90.8l1,6.4l-35.6,81.7h-14.1l-35.6-79.8l1-8.3V199h-19.8V54.5h19l42.4,95.4
			L653.7,54.5z"/>
		<path class="st0" d="M708.4,54.5h20.3V199h-20.3V54.5z M718.2,54.5h82.9v19.3h-82.9V54.5z M718.2,117.6h72v19.3h-72V117.6z
			 M718.2,179.7h82.9V199h-82.9V179.7z"/>
		<path class="st0" d="M830,54.5h20.3V199H830V54.5z M843.7,179.7h32.7c10.7,0,18.9-2.8,24.8-8.3c5.9-5.5,8.8-13.3,8.8-23.4v-42.5
			c0-10.1-2.9-17.9-8.8-23.4c-5.9-5.5-14.1-8.3-24.8-8.3h-32.7V54.5h32.1c11.6,0,21.5,2,29.7,6.1c8.2,4,14.5,9.9,18.8,17.7
			c4.3,7.7,6.5,17.1,6.5,28v40.9c0,10.9-2.2,20.3-6.5,28c-4.3,7.7-10.6,13.6-18.8,17.7c-8.2,4-18.2,6.1-29.7,6.1h-32V179.7z"/>
		<path class="st0" d="M984.8,194.2c-7.6-4.2-13.4-10.3-17.3-18.4c-4-8-6-17.7-6-29.1V54.5h20.3v92.9c0,10.5,2.6,18.7,7.9,24.4
			c5.3,5.8,12.8,8.6,22.4,8.6c9.7,0,17.3-2.9,22.6-8.6c5.3-5.8,8-13.9,8-24.4V54.5h20.3v92.2c0,11.3-2,21-6,29.1
			c-4,8-9.8,14.2-17.4,18.4c-7.6,4.2-16.8,6.3-27.5,6.3C1001.5,200.5,992.4,198.4,984.8,194.2z"/>
		<path class="st0" d="M1120.4,198.5c-6.2-1.3-12-3.3-17.4-6c-5.4-2.6-10.4-6-15.1-9.9l12.6-15.5c5.5,4.8,11.6,8.3,18.2,10.7
			c6.6,2.4,13.8,3.6,21.6,3.6c10.5,0,18.6-1.9,24.3-5.8c5.8-3.9,8.6-9.4,8.6-16.4V159c0-5-1.3-9-3.9-12c-2.6-2.9-6-5.1-10.1-6.6
			c-4.1-1.4-9.5-2.7-16-3.9c-0.2-0.1-0.4-0.1-0.6-0.1c-0.2,0-0.4,0-0.6-0.1l-1.5-0.3c-9.7-1.7-17.5-3.5-23.6-5.6
			c-6.1-2.1-11.2-5.9-15.5-11.4c-4.3-5.5-6.5-13.4-6.5-23.6v-0.1c0-8.9,2-16.6,6-22.9c4-6.3,9.8-11.1,17.5-14.5
			c7.7-3.3,16.9-5,27.7-5c5.2,0,10.2,0.6,15.2,1.7c5,1.1,9.9,2.8,14.8,5c4.9,2.2,9.7,5,14.4,8.4l-11.5,16.1c-5.5-4-11-7.1-16.4-9.1
			c-5.5-2-10.9-3-16.4-3c-9.9,0-17.5,2-23,5.9c-5.5,3.9-8.2,9.5-8.2,16.7v0.1c0,5,1.4,8.9,4.2,11.7c2.8,2.8,6.3,5,10.5,6.3
			c4.2,1.4,10,2.8,17.5,4.2c0.3,0.1,0.5,0.1,0.7,0.1c0.2,0,0.5,0.1,0.7,0.1c0.3,0.1,0.7,0.1,1.1,0.2c0.4,0.1,0.8,0.1,1.1,0.2
			c8.7,1.8,16,3.9,21.9,6.4c5.9,2.5,10.8,6.4,14.7,11.9c3.9,5.5,5.9,12.9,5.9,22.4v0.2c0,8.8-2.1,16.3-6.3,22.6s-10.2,11-18.1,14.3
			c-7.9,3.3-17.5,4.9-28.7,4.9C1133.2,200.5,1126.7,199.8,1120.4,198.5z"/>
		<path class="st0" d="M1261.4,54.5h17.3l53.2,144.4h-21.9l-40-116.5L1230,199h-21.9L1261.4,54.5z M1232.7,148h76v19.3h-76V148z"/>
	</g>
</g>
<g>
	<g>
		<path class="st1" d="M552.7,265.9h9v64.7h-9V265.9z M558,322.2h17.5c4.6,0,8-0.9,10.1-2.6c2.1-1.8,3.2-4.2,3.2-7.4v-0.1
			c0-2.2-0.4-4.1-1.1-5.7s-2-2.8-3.6-3.6c-1.6-0.8-3.7-1.3-6.3-1.3H558v-8.2h19.8c3.4,0,5.9-0.8,7.6-2.4s2.6-3.9,2.6-7
			c0-3.2-0.9-5.7-2.8-7.3c-1.9-1.6-4.7-2.4-8.5-2.4H558v-8.4h20.2c4.2,0,7.7,0.7,10.5,2.1c2.8,1.4,4.9,3.4,6.3,6.1
			c1.4,2.6,2.1,5.7,2.1,9.3c0,2.2-0.4,4.3-1.3,6.3c-0.9,1.9-2.2,3.6-3.9,5c-1.8,1.4-4,2.3-6.6,2.8c2.6,0.4,4.9,1.3,6.8,2.8
			c1.9,1.5,3.4,3.3,4.4,5.5s1.5,4.6,1.5,7.1v0.1c0,3.5-0.8,6.6-2.3,9.3c-1.5,2.7-3.8,4.7-6.6,6.2c-2.9,1.5-6.2,2.2-10.1,2.2H558
			V322.2z"/>
		<path class="st1" d="M717.1,330.6H708v-64.7h9.1V330.6z"/>
		<path class="st1" d="M840.2,330.4c-2.8-0.6-5.4-1.5-7.8-2.7c-2.4-1.2-4.7-2.7-6.8-4.4l5.7-6.9c2.5,2.1,5.2,3.7,8.1,4.8
			c3,1.1,6.2,1.6,9.7,1.6c4.7,0,8.3-0.9,10.9-2.6s3.9-4.2,3.9-7.4v0c0-2.3-0.6-4-1.8-5.4c-1.2-1.3-2.7-2.3-4.5-2.9
			c-1.9-0.6-4.2-1.2-7.2-1.8c-0.1,0-0.2,0-0.3,0c-0.1,0-0.2,0-0.3,0l-0.7-0.1c-4.3-0.7-7.9-1.6-10.6-2.5c-2.7-0.9-5-2.6-7-5.1
			c-1.9-2.5-2.9-6-2.9-10.6v0c0-4,0.9-7.4,2.7-10.3c1.8-2.8,4.4-5,7.9-6.5c3.4-1.5,7.6-2.2,12.4-2.2c2.3,0,4.6,0.3,6.8,0.8
			c2.2,0.5,4.4,1.3,6.6,2.2s4.3,2.2,6.4,3.8l-5.2,7.2c-2.5-1.8-4.9-3.2-7.4-4.1c-2.4-0.9-4.9-1.4-7.4-1.4c-4.4,0-7.9,0.9-10.3,2.6
			s-3.7,4.3-3.7,7.5v0c0,2.2,0.6,4,1.9,5.2c1.3,1.3,2.8,2.2,4.7,2.8c1.9,0.6,4.5,1.2,7.9,1.9c0.1,0,0.2,0.1,0.3,0.1s0.2,0,0.3,0.1
			c0.1,0,0.3,0.1,0.5,0.1c0.2,0,0.3,0.1,0.5,0.1c3.9,0.8,7.2,1.8,9.8,2.8c2.6,1.1,4.8,2.9,6.6,5.3c1.8,2.4,2.6,5.8,2.6,10v0.1
			c0,3.9-0.9,7.3-2.8,10.1c-1.9,2.8-4.6,4.9-8.1,6.4s-7.8,2.2-12.8,2.2C846,331.3,843,331,840.2,330.4z"/>
		<path class="st1" d="M973.4,265.9h45.7v8.6h-45.7V265.9z M991.6,271.2h9.1v59.4h-9.1V271.2z"/>
		<path class="st1" d="M1122.6,265.9h9.1v64.7h-9.1V265.9z M1126.6,294.6h22.1c1.7,0,3.2-0.4,4.6-1.2c1.3-0.8,2.4-2,3.1-3.5
			c0.7-1.5,1.1-3.3,1.1-5.3c0-2-0.4-3.7-1.1-5.3c-0.7-1.5-1.8-2.7-3.1-3.5c-1.3-0.8-2.9-1.2-4.6-1.2h-22.1v-8.6h21.7
			c3.7,0,7,0.8,9.9,2.3c2.8,1.5,5,3.7,6.6,6.6c1.6,2.8,2.3,6.1,2.3,9.8c0,3.7-0.8,7-2.4,9.8c-1.6,2.8-3.8,5-6.6,6.6
			c-2.8,1.5-6.1,2.3-9.8,2.3h-21.7V294.6z M1144.2,301.3l9-2l16.6,31.4H1159L1144.2,301.3z"/>
		<path class="st1" d="M1288,328.4c-3.4-2-6.1-4.8-8-8.4s-2.8-7.8-2.8-12.5v-18.3c0-4.7,0.9-8.9,2.8-12.5s4.5-6.4,8-8.4
			c3.4-2,7.4-3,11.9-3c4.5,0,8.5,1,11.9,3c3.4,2,6.1,4.8,8,8.4c1.9,3.6,2.8,7.8,2.8,12.5v18.3c0,4.7-0.9,8.9-2.8,12.5
			c-1.9,3.6-4.5,6.4-8,8.4c-3.4,2-7.4,3-11.9,3C1295.4,331.3,1291.5,330.3,1288,328.4z M1307,320.6c2-1.2,3.6-2.9,4.7-5.1
			c1.1-2.2,1.7-4.8,1.7-7.7v-19c0-2.9-0.6-5.5-1.7-7.7c-1.1-2.2-2.7-3.9-4.7-5.1c-2-1.2-4.4-1.8-7.1-1.8c-2.7,0-5,0.6-7.1,1.8
			s-3.6,2.9-4.7,5.1c-1.1,2.2-1.7,4.8-1.7,7.7v19c0,2.9,0.6,5.5,1.7,7.7c1.1,2.2,2.7,3.9,4.7,5.1c2,1.2,4.4,1.8,7.1,1.8
			C1302.6,322.4,1305,321.8,1307,320.6z"/>
	</g>
</g>
<path class="st1" d="M340,182.4l-31.4-33.5l-4.2,23.2l-47,9.9l-4.2-3.1l-33.1-20.4l-8.2-6.4l-32.2,39.2l-28,22.9L137,227.3l4.8,2.4
	h22.6l12.7,10.2l5.4,20.3l-2.7,23.9l51.5,73.6l29.9,11.9l35.2-11.9c29.8,1.5,39.3-49.8,39.3-49.8l9.5-16.9l-1.2-30.9v-7.5l17.9-23.6
	l23.7,1.9v-11.8L340,182.4z"/>
<path class="st2" d="M289.1,331c-0.1,0-0.2,0-0.2,0c-0.1,0-0.3,0-0.6,0c-4-0.5-10.4-4.8-10.4-4.8c-5.3-3.7-8.8-1.6-8.8-1.6
	c-1.9,0.9-3.8,1.6-3.8,1.6s-1.9-0.6-3.8-1.6c0,0-3.5-2.2-8.8,1.6c0,0-6.4,4.3-10.4,4.8c-0.3,0-0.5,0-0.6,0c-0.1,0-0.2,0-0.2,0
	c0,0,0.1,0,0.4,0.1c1.6,1.1,8.3,9.7,8.3,9.7c4.3,5.7,15.1,5.1,15.1,5.1s10.8,0.6,15.1-5.1c0,0,6.7-8.6,8.3-9.7
	C289,331,289.1,331,289.1,331"/>
<path class="st2" d="M219.3,281.1c2.2,1.6,4.3,3.3,6.5,4.7c10.1,6.6,21.2,10.1,33.2,11c13.4,1,26.4-0.9,38.6-6.7
	c9-4.3,16.7-10.2,22.2-18.7c3-4.7,5-9.8,5.6-15.4c0-0.3,0-0.6,0.1-1.1c-2.3,1.1-4.5,2.2-6.6,3.3c-7.6,3.9-15.5,6.4-24.1,6.8
	c-11.2,0.5-21.6-2.2-31-8.3c-7.7-5-16-8-25.2-8.3c-7-0.2-13.6,1.1-19.9,4.1c-4.2,2-8.4,4.2-12.9,6.4c1,2.7,1.7,5.6,3,8.1
	c1.5,3,3.6,5.7,5.4,8.6c0.2,0.3,0.3,0.5,0.5,0.8C216.1,277.9,217.7,279.5,219.3,281.1"/>
<path class="st2" d="M205.3,250c2.9-1.5,5.6-2.9,8.3-4.2c18.2-8.5,36-7.4,53,3.3c9.7,6.1,20,8.9,31.4,7.5c5.2-0.6,10.1-2.2,14.8-4.5
	c3.7-1.8,7.4-3.7,11.1-5.5c0.7-0.3,0.9-0.6,0.8-1.4c-2-8.7-6.7-15.6-13.4-21.3c-11-9.4-24.1-13.8-38.3-15.1
	c-13.9-1.3-27.3,0.7-40,6.5c-7.6,3.5-14.3,8.3-19.6,14.9c-4,5-6.7,10.6-7.8,17C205.5,248.1,205.5,248.9,205.3,250"/>
<path class="st3" d="M486.6,230.7c-1-15.6-5.6-28.9-9.7-37.8c2.7-8.3,4.5-16.7,5.5-25.1c1.8-16.2,0.4-32.3-4.8-46.7
	c-5.2-14.7-14.3-27.7-27.6-37.3c-10.6-7.7-23.9-13.1-40.1-15.5C399,48.7,377.4,36,355.6,32.6c-10.1-1.6-20.3-1.2-29.6,1.3
	c-9.6,2.6-18.3,7.6-24.9,15.1c-11.2,12.7-16.5,32.3-10.5,59.9c0,0.3,0.1,0.7,0.2,1c5.3,17.1,14.2,27.7,19.1,32.6
	c-3.8,13-11.7,22.3-21.3,27.8c-7.1,4.1-15.2,6.1-23.3,6.1c-8.1,0-16.2-2-23.3-6.1c-9.6-5.5-17.5-14.7-21.2-27.8
	c4.9-4.8,13.7-15.5,19.1-32.6l0.1-0.6c6.2-27.9,0.9-47.6-10.4-60.4c-6.6-7.5-15.3-12.5-24.9-15.1c-9.3-2.6-19.5-2.9-29.6-1.3
	c-21.8,3.4-43.4,16.1-54.2,35.7c-16.1,2.3-29.4,7.8-40.1,15.5c-13.3,9.6-22.4,22.6-27.6,37.3c-5.1,14.4-6.6,30.5-4.8,46.7
	c0.9,8.4,2.8,16.9,5.5,25.1c-4.1,8.9-8.7,22.3-9.7,37.8c-0.8,12,0.6,25.3,6,38.9c0.1,0.3,0.2,0.5,0.4,0.8c1.2,2.5,6.8,14,18,25.6
	c-1.1,5.8-1.7,13.7,0.2,22c2.4,10.6,8.7,21.8,22.9,30.4l0.3,0.2c3.3,2.2,5.4,6.6,7.7,11.4c6.6,14,14.3,30.2,52,30.7
	c14.8,0.2,28.2-2.6,35.9-7.4c4.1-2.6,7-5.8,8.2-9.6c1.3-4.3,0.6-8.8-2.8-13.3c-4.3-5.8-14-12.1-30.8-18.2
	c-5.9-2.1-12.5-5.1-17.2-9.6c-2.9-2.7-5.1-6-5.8-10.2c18.9-1.3,32.4-8.6,41.2-18.7c5.4,9.8,10.9,18.7,16.5,26.5
	c0,0,7.7,10.3,11.3,14.3c3.7,4.2,7.5,8,11.3,11.4c14.9,13.2,30.4,19.8,46,19.8c15.6,0,31.1-6.6,46-19.8c4-3.5,7.9-7.4,11.8-11.9
	l11.2-14.2c5.5-7.7,10.9-16.4,16.2-26.1c8.8,10.1,22.2,17.5,41.3,18.8c-0.7,4.3-2.9,7.7-5.9,10.4c-4.7,4.3-11.3,7.2-17.3,9.3
	c-16.8,6.1-26.5,12.3-30.8,18.2c-3.3,4.5-4.1,9-2.8,13.3c1.2,3.9,4,7.1,8.2,9.6c7.7,4.8,21.2,7.6,35.9,7.4
	c37.7-0.6,45.4-16.8,52-30.7c2.3-4.8,4.4-9.2,7.7-11.4l0.3-0.2c14.1-8.7,20.4-19.9,22.9-30.4c1.9-8.3,1.3-16.2,0.2-22
	c11.2-11.6,16.8-23.1,18-25.6c0.1-0.2,0.3-0.5,0.4-0.8C485.9,256,487.3,242.7,486.6,230.7 M406.6,81.6c14.5,1.9,26.2,6.6,35.4,13.2
	c10.9,7.8,18.3,18.6,22.7,30.7c4.4,12.5,5.7,26.5,4.1,40.6c-2.2,19.2-9.5,38.6-21.1,54.7c-1,1.3-1.5,3-1.3,4.7
	c0.7,7,0.1,13.2-1.2,18.6c-1.6,6.2-4.2,11.4-7.3,15.7c-10.5,14.6-20.5,20-28.3,19.4c-4-0.3-7.5-2.3-10.2-5.5
	c-3.1-3.5-5.2-8.5-6.1-14.4c-2.3-15.4,4.1-36,25.2-53c3.4-2.7,6.4-5.6,9.1-8.6l0.6-0.3c1.8-1,2.9-2.6,3.4-4.4
	c5.2-6.8,8.8-14,10.9-21.2c2.9-10.3,2.8-20.6-0.3-30c-3.1-9.5-9.3-17.9-18.3-24.2c-9.9-6.9-23.4-11.2-40.1-11.3l-3.3,0
	C380.6,88.3,403.2,82.4,406.6,81.6 M366.9,192c-15.2-10.4-31.2-21.3-38.6-40.1c4.9,1.2,10.4,2,16.3,2.9l0.6,0.1
	c23,3.6,53,8.2,70.7,35.3c-1.9,1.9-3.9,3.8-6.1,5.6c-6.7,5.4-12.2,11.2-16.6,17.2C385.8,204.8,376.5,198.5,366.9,192 M304,106
	c-4.9-22.8-1.1-38.4,7.4-48c4.8-5.4,11.2-9,18.3-11c7.4-2,15.7-2.3,23.9-1c16.4,2.6,32.5,11.3,41.9,24.7c-4.5,1.7-10.2,4.4-15.2,8.4
	c-17.6-3.9-31-1.5-38.4,3.4c-4.6,3-7.3,7.1-7.9,11.5c-0.7,4.6,0.9,9.3,4.9,13.4c6.5,6.7,21,12.3,44.7,12.4
	c13.8,0.1,24.6,3.4,32.4,8.9c6.5,4.5,10.9,10.5,13.1,17.2c2.3,6.8,2.3,14.4,0.1,22c-1,3.5-2.5,7-4.5,10.5
	c-20.9-28.6-52.6-33.5-77.3-37.3l-0.6-0.1c-10.7-1.7-19.9-3.1-24.6-6.2l-0.3-0.2l-0.4-0.3C319.4,133,309.7,124.2,304,106
	 M177.1,46.1c8.2-1.3,16.5-1,23.9,1c7.1,2,13.5,5.6,18.3,11c8.5,9.6,12.3,25.2,7.4,48c-6.4,20.2-17.8,28.8-17.8,28.9l-0.3,0.3
	l-0.2,0.1c-4.8,3.1-14.2,4.5-25.1,6.1c-24.6,3.5-56.3,8.1-77.1,37.5c-2-3.5-3.5-7.1-4.6-10.7c-2.2-7.6-2.1-15.2,0.1-22
	c2.2-6.7,6.6-12.7,13.1-17.2c7.8-5.4,18.6-8.8,32.4-8.9c23.7-0.1,38.2-5.7,44.7-12.4c4-4.1,5.6-8.8,4.9-13.4
	c-0.6-4.5-3.4-8.5-7.9-11.5c-7.4-4.9-20.9-7.4-38.4-3.4c-5.1-4-10.7-6.7-15.2-8.4C144.6,57.4,160.8,48.7,177.1,46.1 M202.1,152
	c-7.3,18.8-23.2,29.6-38.3,39.8c-9.6,6.5-18.9,12.9-26.3,21c-4.4-5.9-9.8-11.7-16.5-17.1c-2.2-1.7-4.1-3.6-6-5.4
	c17.4-27.8,47.3-32.1,70.2-35.4C191.3,154,197,153.2,202.1,152 M66,125.5c4.3-12.2,11.8-22.9,22.7-30.7c9.2-6.6,20.9-11.3,35.4-13.2
	c3.4,0.8,26,6.6,26.4,24.8l-3.3,0c-16.8,0.1-30.2,4.3-40.1,11.3c-9,6.3-15.2,14.7-18.3,24.2c-3.1,9.4-3.2,19.8-0.3,30
	c3.5,12.3,11.4,24.4,23.9,34.5c21.1,17,27.5,37.7,25.2,53c-0.9,5.9-3,10.8-6.1,14.4c-2.7,3.2-6.2,5.2-10.2,5.5
	c-7.8,0.6-17.8-4.8-28.3-19.4c-3.1-4.3-5.8-9.5-7.3-15.7c-1.4-5.4-1.9-11.6-1.2-18.6c0.2-1.8-0.4-3.4-1.3-4.7
	c-11.6-16.1-18.9-35.5-21.1-54.7C60.4,152,61.6,138,66,125.5 M157.5,355.1c14,5.1,21.6,9.6,24.5,13.5c0.5,0.7,0.7,1,0.7,1.1
	c-0.2,0.5-1,1.2-2.3,2c-5.6,3.5-16.3,5.5-28.6,5.3c-29.2-0.4-34.9-12.5-39.8-22.9c-3.2-6.7-6.1-12.8-12.8-17.1l-0.4-0.3
	c-10.4-6.4-15-14.4-16.7-21.8c-0.6-2.7-0.9-5.4-0.9-8c9.6,6.9,21.7,12.7,36.6,14.7c2.6,0.4,5.1,0.6,7.5,0.8
	c0.8,8.4,4.8,15.1,10.4,20.3C141.9,348.6,150.2,352.5,157.5,355.1 M173.6,289.8c-8.1,13.1-25.1,22.4-54.1,18.3
	c-16.7-2.3-29.3-10.2-38.3-18.6c-0.4-0.4-0.8-0.8-1.2-1.2c-10.6-10.4-16-21.3-17.1-23.6l-0.1-0.2c-4.6-11.6-5.7-22.8-5.1-33
	c0.5-7.4,1.9-14.2,3.6-20.1c2.7,5.4,5.7,10.6,9.2,15.5c-0.5,7.7,0.2,14.5,1.8,20.6c2,8,5.4,14.7,9.5,20.4
	c13.7,19.1,28.3,26.1,40.5,25c7.7-0.6,14.3-4.3,19.4-10.2c4.7-5.5,8-12.9,9.3-21.3c1-6.5,0.8-13.8-0.9-21.3
	c6.9-4.2,12.8-4.3,17.3-1.7c6.1,3.5,10.3,11.5,11.8,20.9C180.9,269.3,179.3,280.5,173.6,289.8 M338.2,257.8
	c-1.7,10.4-0.6,22,3.9,32.5c-12.8,24.9-26.2,43.3-39.8,55.3c-12.3,10.9-24.7,16.3-37,16.3c-12.2,0-24.7-5.4-37-16.3
	c-13.6-12-26.9-30.4-39.7-55.2c4.7-10.7,5.9-22.5,4.2-33.2c-2.1-13.3-8.7-25-18.4-30.6c-8.1-4.7-17.9-5.3-28.6,0.3l-0.9-1.8
	c6.5-8.4,16.4-15.1,26.5-22c16.2-11,33-22.5,42-42.7c5.5,9.6,13,16.8,21.7,21.8c9.2,5.2,19.6,7.9,30.1,7.9c10.4,0,20.9-2.6,30.1-7.9
	c8.7-4.9,16.3-12.2,21.7-21.6c9,20.1,26,31.7,42.1,42.7c10.2,6.9,20,13.6,26.5,22l-0.9,1.9c-10.5-5.3-20.1-4.5-28.1,0.1
	C347,232.9,340.4,244.6,338.2,257.8 M448.7,314.9c-1.7,7.4-6.3,15.4-16.7,21.8l-0.4,0.3c-6.7,4.3-9.6,10.5-12.7,17.1
	c-4.9,10.4-10.7,22.5-39.8,22.9c-12.3,0.2-23-1.8-28.6-5.3c-1.3-0.8-2.1-1.5-2.3-2c0-0.1,0.2-0.4,0.7-1.1
	c2.8-3.8,10.4-8.4,24.5-13.5c7.2-2.6,15.5-6.3,21.8-12c5.7-5.2,9.9-11.9,10.5-20.6c2.4-0.2,4.9-0.4,7.5-0.8
	c14.8-2.1,26.9-7.8,36.6-14.7C449.6,309.4,449.3,312.1,448.7,314.9 M467.8,264.5l-0.1,0.2c-1.1,2.3-6.5,13.2-17.1,23.6
	c-0.5,0.3-0.9,0.7-1.2,1.2c-9,8.4-21.6,16.3-38.3,18.6c-28.9,4-45.7-5.1-53.8-18c-5.7-9.1-7.2-20.2-5.6-30.1
	c1.5-9.4,5.8-17.4,11.9-20.9c4.4-2.6,10.1-2.6,16.9,1.3c-1.6,7.5-1.8,14.6-0.9,21.1c1.3,8.4,4.6,15.8,9.3,21.3
	c5.1,5.9,11.7,9.6,19.4,10.2c12.3,1,26.8-6,40.5-25c4.1-5.7,7.5-12.4,9.5-20.4c1.5-6.1,2.2-13,1.8-20.6c3.4-4.9,6.5-10.1,9.2-15.5
	c1.8,5.9,3.2,12.8,3.6,20.1C473.6,241.7,472.4,253,467.8,264.5"/>
<rect x="552.7" y="354" class="st1" width="770" height="36.7"/>
<rect x="674" y="354" class="st4" width="3" height="36.7"/>
<rect x="804.5" y="354" class="st4" width="3" height="36.7"/>
<rect x="944" y="354" class="st4" width="3" height="36.7"/>
<rect x="1078.5" y="354" class="st4" width="3" height="36.7"/>
<rect x="1205" y="354" class="st4" width="3" height="36.7"/>
</svg>
